<svg xmlns="http://www.w3.org/2000/svg" width="13" height="13" viewBox="0 0 13 13">
  <path fill="#1DCC8B" d="M4.75,4.99248703 L4.75,-0.336781261 C4.75,-0.983358529 5.42157288,-1.50751297 6.25,-1.50751297 C7.07842712,-1.50751297 7.75,-0.983358529 7.75,-0.336781261 L7.75,4.99248703 L13.0792683,4.99248703 C13.7258456,4.99248703 14.25,5.66405991 14.25,6.49248703 C14.25,7.32091416 13.7258456,7.99248703 13.0792683,7.99248703 L7.75,7.99248703 L7.75,13.3217553 C7.75,13.9683326 7.07842712,14.492487 6.25,14.492487 C5.42157288,14.492487 4.75,13.9683326 4.75,13.3217553 L4.75,7.99248703 L-0.579268293,7.99248703 C-1.22584556,7.99248703 -1.75,7.32091416 -1.75,6.49248703 C-1.75,5.66405991 -1.22584556,4.99248703 -0.579268293,4.99248703 L4.75,4.99248703 Z" transform="rotate(45 6.25 6.492)"/>
</svg>
