<svg xmlns="http://www.w3.org/2000/svg" width="50" height="50" viewBox="0 0 50 50">
  <g id="ico3" transform="translate(-922 -439)">
    <circle id="타원_2" data-name="타원 2" cx="25" cy="25" r="25" transform="translate(922 439)" fill="#333"/>
    <path id="ic_control_point_duplicate_24px" d="M21.985,9.87H19.237v4.122H15.115v2.748h4.122v4.122h2.748V16.741h4.122V13.993H21.985Zm-19.237,5.5a9.605,9.605,0,0,1,5.51-8.684V3.715a12.35,12.35,0,0,0,0,23.3V24.051A9.605,9.605,0,0,1,2.748,15.367ZM20.611,3A12.367,12.367,0,1,0,32.978,15.367,12.385,12.385,0,0,0,20.611,3Zm0,21.985a9.619,9.619,0,1,1,9.619-9.619A9.629,9.629,0,0,1,20.611,24.985Z" transform="translate(931 449)" fill="#fff"/>
  </g>
</svg>
